<svg width="160" height="160" viewBox="0 0 160 160" fill="none" xmlns="http://www.w3.org/2000/svg">
<path d="M153.12 111.27C153.12 111.247 153.12 111.247 153.12 111.224C153.097 109.647 152.115 108.207 150.332 107.178L117.852 88.3212C115.863 87.1783 113.258 86.7211 110.743 86.9269C112.297 84.8011 113.28 82.1726 113.28 79.7954L113.258 71.7954C113.783 71.4984 114.24 71.2468 114.561 71.0412C123.886 65.6697 131.452 52.5497 131.429 41.8068C131.406 36.5955 129.623 32.5955 126.378 30.5383C126.263 30.4469 116.618 24.824 116.48 24.7555C115.977 24.4583 115.475 24.2525 114.995 24.0925C114.012 22.1268 112.64 20.5497 110.72 19.4755L101.258 13.9668C98.4462 12.3441 94.9948 12.184 91.2459 13.4412L84.5031 9.50965C79.9088 6.85829 73.8748 7.40684 67.5433 11.0641C58.0573 16.5497 49.6231 28.1612 46.3776 40.0925C44.3659 40.4354 42.2403 41.2126 40.0003 42.5154C29.9434 48.3212 21.8977 61.8526 21.463 73.5783C13.0746 79.6811 6.83461 91.4755 6.85748 101.258C6.88036 106.675 8.77713 110.767 12.2057 112.778L21.829 118.355C21.8519 118.355 21.8519 118.378 21.8748 118.378C25.829 120.664 30.5829 119.544 34.5606 117.235L45.0974 111.133V111.635C45.1203 113.715 45.8748 115.293 47.2688 116.093L52.5718 119.178C52.9144 119.384 53.3034 119.498 53.6689 119.59C53.4629 120.07 53.3262 120.573 53.3262 121.098C53.3262 121.098 53.3262 121.098 53.3262 121.121V127.75C53.3486 129.35 54.3318 130.813 56.1376 131.841L88.6175 150.698C92.0003 152.641 97.2576 152.618 100.595 150.698L150.332 122.035C152.138 120.984 153.143 119.521 153.143 117.898C153.143 117.601 153.12 111.27 153.12 111.27ZM116.686 90.2868L149.189 109.144C151.498 110.493 151.269 112.207 149.166 113.418L99.4289 142.081C96.8006 143.613 92.3659 143.613 89.7604 142.081L57.2576 123.224C55.223 122.058 54.949 120.321 57.3033 118.95C75.9546 108.207 87.9317 101.304 107.063 90.264C109.692 88.7783 114.08 88.7783 116.686 90.2868ZM68.6862 13.0526C74.2861 9.80681 79.4976 9.25826 83.3603 11.4984L86.7431 13.464C86.6516 13.4869 86.5606 13.5097 86.4914 13.5097C83.3145 13.7383 79.8402 15.0868 77.1432 16.6412C67.1772 22.424 59.2688 34.264 56.1605 44.9382L48.6175 40.5497C51.7487 29.2126 59.7258 18.2411 68.6862 13.0526ZM13.372 110.79C10.6516 109.213 9.16608 105.83 9.1432 101.258C9.12032 92.344 14.9948 81.2126 22.6287 75.5211L30.103 79.864C22.1488 86.2184 16.4345 97.5325 16.4574 106.835C16.4803 109.281 16.9602 111.704 17.5774 113.235L13.372 110.79ZM45.0059 74.104L45.0974 108.504L33.4177 115.27C25.1661 120.024 18.7888 116.321 18.7431 106.835C18.7202 97.5554 25.0517 86.104 32.8463 80.6868C33.0974 80.5041 33.3262 80.1154 33.3262 79.7726C33.5316 67.2926 44.1834 50.0583 57.0059 47.8182C57.0059 47.8182 57.0059 47.8182 57.0746 47.7954C57.5773 47.704 57.9434 47.2239 57.9892 46.9497C61.0288 35.0641 69.3943 23.7497 78.2861 18.6298C85.5545 14.4469 93.6231 14.3326 97.2118 21.8754C97.4858 22.4698 98.1945 22.7212 98.7888 22.4011C107.429 17.7841 114.172 21.6925 114.4 31.6582C114.423 32.5041 115.292 33.0069 116.023 32.6639C119.543 31.0183 122.789 30.9497 125.166 32.4583C127.726 34.0811 129.12 37.3954 129.143 41.8068C129.166 51.8411 122.103 64.0698 113.394 69.0755C113.349 69.0982 113.303 69.144 113.258 69.1669L113.166 42.264C113.166 40.2069 112.412 38.6525 111.063 37.8297C111.041 37.8297 111.041 37.8068 111.018 37.8068C111.018 37.8068 111.018 37.8068 110.995 37.7841L105.715 34.7211C104.297 33.9212 102.537 34.0355 100.709 35.0868L50.9719 63.7726C47.6119 65.7154 44.983 70.2411 45.0059 74.104ZM50.4233 114.721C50.4233 114.904 50.4233 115.11 50.4462 115.293L48.4116 114.127C47.7715 113.761 47.406 112.847 47.3832 111.635L47.2916 74.104C47.2688 71.0868 49.4858 67.2697 52.1147 65.7383L101.852 37.0755C102.652 36.6183 103.772 36.2297 104.572 36.7097L106.583 37.8754C106.4 37.9668 106.217 38.0583 106.034 38.1726L56.2749 66.8354C52.9144 68.7783 50.3089 73.3269 50.3089 77.1898L50.4233 114.721ZM52.709 114.698L52.5946 77.1898C52.5946 74.1726 54.7888 70.3326 57.4177 68.824L107.177 40.1612C109.235 38.9725 110.88 39.5669 110.88 42.264L110.995 79.7954C110.995 82.8125 108.801 86.6298 106.172 88.1612C71.5891 108.07 60.5031 114.47 57.4177 116.253C57.4177 116.253 57.2805 116.321 57.0288 116.458L56.8686 116.55C56.8006 116.618 56.7319 116.641 56.7319 116.641C56.6862 116.664 56.6633 116.687 56.6404 116.687C56.5718 116.733 56.5489 116.733 56.526 116.755C56.4116 116.824 56.3659 116.847 56.3659 116.847C54.1259 118.104 52.709 117.19 52.709 114.698ZM150.857 117.898C150.857 118.653 150.24 119.43 149.189 120.047L99.4518 148.733C96.8229 150.241 92.3887 150.241 89.7604 148.733L57.2805 129.875C56.2291 129.258 55.6343 128.481 55.6119 127.75V124.893C55.7715 125.007 55.9317 125.098 56.0919 125.19C56.1147 125.213 56.1147 125.213 56.1147 125.213L88.6175 144.07C91.9317 145.99 97.2118 146.013 100.572 144.07L150.309 115.407C150.491 115.293 150.674 115.178 150.857 115.064V117.898Z" fill="#E6FD53"/>
<path d="M126.24 120.07C126.24 120.893 125.76 121.625 124.914 122.105L108.503 131.567C107.154 132.345 105.12 132.345 103.771 131.567L95.04 126.47C93.3028 125.465 93.2799 123.453 95.04 122.425L111.474 112.962C112.822 112.185 114.857 112.185 116.205 112.962L124.937 118.059C125.76 118.539 126.24 119.27 126.24 120.07Z" fill="#E6FD53"/>
<path d="M62.7799 120.025C62.4596 120.21 62.4592 120.509 62.7762 120.693L66.2408 122.703C66.5578 122.887 67.0745 122.888 67.3948 122.703L70.7648 120.76C71.0839 120.576 71.0844 120.278 70.7673 120.094L67.3027 118.084C66.9857 117.9 66.469 117.899 66.1499 118.083L62.7799 120.025Z" fill="#E6FD53"/>
<path d="M70.2682 115.709C69.9479 115.894 69.9475 116.192 70.2645 116.376L73.7291 118.386C74.0461 118.57 74.5628 118.571 74.8831 118.386L78.2531 116.444C78.5722 116.26 78.5726 115.961 78.2556 115.777L74.791 113.767C74.474 113.583 73.9573 113.583 73.6382 113.766L70.2682 115.709Z" fill="#E6FD53"/>
<path d="M77.7565 111.389C77.4362 111.573 77.4357 111.872 77.7528 112.056L81.2174 114.066C81.5344 114.25 82.0511 114.251 82.3714 114.066L85.7414 112.124C86.0605 111.94 86.0609 111.641 85.7439 111.457L82.2793 109.447C81.9623 109.263 81.4456 109.262 81.1265 109.446L77.7565 111.389Z" fill="#E6FD53"/>
<path d="M85.2448 107.068C84.9244 107.253 84.924 107.552 85.241 107.736L88.7057 109.746C89.0227 109.93 89.5394 109.931 89.8597 109.746L93.2297 107.803C93.5488 107.619 93.5492 107.321 93.2322 107.137L89.7676 105.127C89.4506 104.943 88.9339 104.942 88.6148 105.126L85.2448 107.068Z" fill="#E6FD53"/>
<path d="M92.735 102.748C92.4147 102.933 92.4143 103.231 92.7313 103.415L96.1959 105.426C96.5129 105.609 97.0296 105.61 97.3499 105.426L100.72 103.483C101.039 103.299 101.039 103 100.722 102.816L97.2578 100.806C96.9408 100.622 96.4241 100.622 96.105 100.806L92.735 102.748Z" fill="#E6FD53"/>
<path d="M100.223 98.4316C99.903 98.6163 99.9025 98.9151 100.22 99.099L103.684 101.109C104.001 101.293 104.518 101.294 104.838 101.109L108.208 99.1667C108.527 98.9827 108.528 98.6839 108.211 98.5L104.746 96.4899C104.429 96.3059 103.912 96.3052 103.593 96.4891L100.223 98.4316Z" fill="#E6FD53"/>
<path d="M107.712 94.1113C107.391 94.296 107.391 94.5948 107.708 94.7787L111.172 96.7888C111.489 96.9727 112.006 96.9735 112.326 96.7888L115.696 94.8463C116.016 94.6624 116.016 94.3636 115.699 94.1797L112.234 92.1696C111.917 91.9856 111.401 91.9849 111.082 92.1688L107.712 94.1113Z" fill="#E6FD53"/>
<path d="M68.9733 124.213C68.653 124.398 68.6525 124.696 68.9696 124.88L72.4342 126.89C72.7512 127.074 73.2679 127.075 73.5882 126.89L76.9582 124.948C77.2773 124.764 77.2777 124.465 76.9607 124.281L73.4961 122.271C73.1791 122.087 72.6624 122.086 72.3433 122.27L68.9733 124.213Z" fill="#E6FD53"/>
<path d="M76.4616 119.896C76.1412 120.081 76.1408 120.38 76.4578 120.564L79.9225 122.574C80.2395 122.758 80.7561 122.759 81.0765 122.574L84.4465 120.631C84.7656 120.448 84.766 120.149 84.449 119.965L80.9844 117.955C80.6674 117.771 80.1507 117.77 79.8316 117.954L76.4616 119.896Z" fill="#E6FD53"/>
<path d="M83.9499 115.576C83.6295 115.761 83.6291 116.06 83.9461 116.244L87.4107 118.254C87.7278 118.438 88.2444 118.438 88.5648 118.254L91.9348 116.311C92.2539 116.127 92.2543 115.828 91.9373 115.645L88.4726 113.634C88.1556 113.45 87.639 113.45 87.3199 113.634L83.9499 115.576Z" fill="#E6FD53"/>
<path d="M91.4401 111.256C91.1198 111.44 91.1193 111.739 91.4364 111.923L94.901 113.933C95.218 114.117 95.7347 114.118 96.055 113.933L99.425 111.991C99.7441 111.807 99.7445 111.508 99.4275 111.324L95.9629 109.314C95.6459 109.13 95.1292 109.129 94.8101 109.313L91.4401 111.256Z" fill="#E6FD53"/>
<path d="M98.9284 106.936C98.608 107.12 98.6076 107.419 98.9246 107.603L102.389 109.613C102.706 109.797 103.223 109.798 103.543 109.613L106.913 107.671C107.232 107.487 107.233 107.188 106.916 107.004L103.451 104.994C103.134 104.81 102.617 104.809 102.298 104.993L98.9284 106.936Z" fill="#E6FD53"/>
<path d="M106.417 102.619C106.096 102.804 106.096 103.103 106.413 103.287L109.878 105.297C110.195 105.481 110.711 105.481 111.032 105.297L114.402 103.354C114.721 103.17 114.721 102.871 114.404 102.688L110.939 100.677C110.622 100.493 110.106 100.493 109.787 100.677L106.417 102.619Z" fill="#E6FD53"/>
<path d="M113.905 98.2988C113.585 98.4835 113.584 98.7823 113.901 98.9662L117.366 100.976C117.683 101.16 118.2 101.161 118.52 100.976L121.89 99.0338C122.209 98.8499 122.209 98.5511 121.892 98.3672L118.428 96.3571C118.111 96.1731 117.594 96.1724 117.275 96.3563L113.905 98.2988Z" fill="#E6FD53"/>
<path d="M94.3406 56.5053C94.9899 56.1304 95.5247 56.4295 95.5268 57.1812L95.573 73.49L100.322 70.7483C101.325 70.1692 101.876 71.2005 101.234 72.4579L92.908 88.754C92.6714 89.2141 92.3364 89.5692 92.0013 89.7627C91.6664 89.956 91.3317 89.9876 91.0957 89.8003L82.6802 83.1701C82.0284 82.6652 82.5721 80.996 83.5752 80.4169L88.319 77.6781L88.2728 61.3693C88.2706 60.6177 88.8021 59.7029 89.4513 59.3281L94.3406 56.5053Z" fill="#E6FD53"/>
<path d="M70.5057 70.2923C70.8406 70.0989 71.1767 70.0666 71.415 70.2525L79.8305 76.8827C80.4775 77.3959 79.9337 79.0596 78.9307 79.6387L74.1869 82.3775L74.2331 98.6863C74.2352 99.438 73.7038 100.353 73.0546 100.728L68.1702 103.548C67.516 103.925 66.9861 103.623 66.9839 102.872L66.9377 86.5628L62.1889 89.3046C61.1811 89.8864 60.6346 88.8523 61.2765 87.5949L69.6027 71.2988C69.8368 70.8402 70.1708 70.4857 70.5057 70.2923Z" fill="#E6FD53"/>
</svg>
