<svg width="160" height="160" viewBox="0 0 160 160" fill="none" xmlns="http://www.w3.org/2000/svg">
<path d="M136.333 115.529C137.933 114.454 138.893 113.106 139.259 111.506C139.83 108.9 138.642 105.792 135.693 102.294C131.83 97.6772 127.259 95.7802 126.23 95.1401L126.299 67.1859C126.299 66.7973 126.093 66.4087 125.728 66.203L91.6244 46.5002C91.2589 46.2944 90.8248 46.2944 90.4816 46.5002L73.5446 56.3287C68.2187 52.2373 62.6875 48.8544 56.6529 45.9744L35.7846 37.1973C28.2187 33.0373 18.8934 39.5973 12.9732 47.9629C7.28179 56.0316 3.99049 67.2544 10.2762 72.8315C10.8248 73.3344 11.4419 73.9287 11.9905 74.6144C13.3845 76.4659 14.1389 78.7058 14.1389 80.9686V89.4487C14.1161 96.0087 16.1049 102.272 19.899 107.597C22.1618 110.752 24.6763 114.043 27.6015 117.654C32.2416 123.254 38.1618 127.849 44.7444 130.934C50.322 133.746 62.4816 139.94 67.6702 137.083C68.9046 136.397 70.2076 136.26 71.3276 136.649L104.059 148.397C108.264 149.403 113.682 150.089 116.905 147.232C118.665 145.7 119.51 143.323 119.488 140.169C127.145 144.077 132.448 145.083 136.127 143.346C138.619 142.18 140.264 139.78 141.088 136.192C144.287 134.546 146.025 132.374 146.253 129.7C146.687 124.603 141.407 119.346 136.333 115.529ZM126.185 105.746L126.208 97.723C129.316 99.3688 131.945 101.38 133.956 103.757C136.379 106.66 137.43 109.174 137.019 111.026C136.744 112.26 135.762 113.312 134.116 114.18C129.91 112.832 125.682 111.117 121.499 109.129L125.636 106.729C125.979 106.523 126.185 106.134 126.185 105.746ZM123.922 105.083L92.3103 123.437L92.3789 96.9915L92.4018 87.5515L106.208 79.5286L124.013 69.1744C124.013 70.7744 123.899 102.157 123.922 105.083ZM90.1161 87.5515L90.0932 96.3058L90.0245 123.46L58.1847 105.083L58.2991 69.1744L81.5446 82.5915L90.1161 87.5515ZM115.396 145.517C113.476 147.209 109.842 147.437 104.722 146.203L72.1049 134.5C71.8303 134.409 71.5558 134.363 71.2818 134.317C70.8476 128.123 69.4074 123.254 66.7332 119.163C63.2818 113.06 54.5502 108.717 50.962 107.14C47.1445 105.472 44.9274 102.272 44.4704 99.1172C44.3789 98.5002 43.7846 98.043 43.1903 98.1573C42.5502 98.2486 42.1161 98.8201 42.2076 99.4601C42.8476 103.826 45.9559 107.46 50.0474 109.243C52.6763 110.409 61.5446 114.614 64.7902 120.329C67.236 124.123 68.5619 128.58 68.9961 134.249C68.173 134.386 67.3733 134.637 66.5731 135.072C66.4129 135.163 66.2305 135.232 66.0474 135.277C66.4129 133.837 66.6646 131.803 65.8873 129.792C64.2187 125.38 58.0474 123.552 53.7734 124.603C51.0988 125.243 48.9732 127.323 48.1272 130.02C47.1903 129.586 46.0703 129.037 45.7048 128.877C39.4419 125.929 33.7957 121.54 29.3845 116.192C26.4816 112.649 23.9905 109.403 21.7734 106.272C18.2533 101.334 16.4018 95.5286 16.4246 89.4487V80.9686C16.4246 78.2259 15.4877 75.483 13.7734 73.1973C13.1562 72.3745 12.4246 71.6886 11.7846 71.1401C6.5502 66.4773 9.70478 56.5344 14.8476 49.2658C19.9905 41.9972 28.4018 35.7344 34.8019 39.2544L55.7388 48.0544C61.2935 50.7058 66.4364 53.8601 71.3962 57.5858L56.5848 66.203C56.2187 66.4087 56.0134 66.9572 56.0134 67.1859L55.899 105.723C55.899 106.134 56.1272 106.523 56.4704 106.729L90.596 126.432C90.9386 126.614 91.3733 126.614 91.7388 126.432V126.409L94.2305 124.969C96.813 126.02 99.51 126.934 102.208 127.666C110.391 130.66 114.962 133.197 117.088 138.477C117.453 141.837 116.882 144.192 115.396 145.517ZM135.167 141.289C131.991 142.774 126.733 141.472 119.053 137.357C116.333 130.889 110.436 128.237 102.893 125.494C100.813 124.923 98.779 124.237 96.7902 123.483L108.722 116.534C113.43 118.866 117.682 120.557 121.453 122.043C130.436 125.586 136.402 127.963 138.871 135.506C138.23 138.5 137.019 140.42 135.167 141.289ZM140.699 133.746C137.705 125.997 131.167 123.414 122.276 119.917C118.939 118.592 115.19 117.106 111.122 115.163L119.099 110.523C123.922 112.9 128.813 114.912 133.682 116.443C140.516 121.289 144.264 126.066 143.968 129.517C143.83 131.163 142.687 132.557 140.699 133.746ZM152.562 23.7573L130.253 10.8887C129.91 10.6829 129.476 10.6829 129.11 10.8887L106.984 23.7573C106.962 23.7573 106.962 23.7573 106.962 23.7573C106.733 23.8944 106.413 24.2601 106.391 24.7401L106.322 49.9287C106.322 50.3402 106.55 50.7287 106.893 50.9345L129.202 63.803C129.545 64.0087 129.979 64.0087 130.345 63.803L152.493 50.9345C152.836 50.7287 153.065 50.363 153.065 49.9516L153.133 24.763V24.7401C153.133 24.3516 152.927 23.9629 152.562 23.7573ZM128.631 60.8315L108.608 49.2887L108.676 26.7287C108.676 26.7287 108.699 26.7287 108.722 26.7516C109.11 26.9801 111.968 28.6259 128.699 38.2715C128.699 38.5231 128.631 59.3688 128.631 60.8315ZM150.779 49.2887L130.916 60.8315C130.916 60.603 130.984 39.4373 130.984 38.2715C135.465 35.6659 147.51 28.6715 150.848 26.7516L150.779 49.2887Z" fill="#6666FF"/>
</svg>
