<svg width="160" height="160" viewBox="0 0 160 160" fill="none" xmlns="http://www.w3.org/2000/svg">
<path d="M135.187 57.3544L126.73 35.2058C123.804 25.9031 119.301 19.3431 113.609 16.0288C113.404 15.9145 113.267 15.8459 113.175 15.7774C113.198 15.7774 113.221 15.8001 113.244 15.8001C112.353 15.2745 109.609 13.6744 102.181 9.35454C95.4153 5.42304 86.9811 6.15449 77.7925 11.4802C67.0497 17.5831 55.4381 29.8573 47.85 46.5201L31.8952 55.7316L31.8728 49.4459C33.1072 49.2401 34.2724 48.6687 35.187 47.7316C38.547 44.3487 36.9699 38.3601 32.2155 37.3317C27.5983 36.3487 23.7356 40.3716 24.7869 44.8745C25.2897 46.9773 26.9811 48.8974 29.5871 49.4002V49.423C29.5871 49.5602 29.5871 50.8859 29.6329 57.7658C29.6787 58.5659 30.5698 59.0687 31.2785 58.7259C31.7585 58.4973 40.0324 53.6744 46.3639 50.0402C42.8667 58.7259 40.9242 67.663 41.1072 75.8001L35.461 79.0687C34.6156 78.0858 33.4956 77.3317 32.2155 77.0573C27.6212 76.0744 23.7127 80.0515 24.7869 84.5773C25.3126 86.7715 27.0497 88.5316 29.2439 89.0801C33.884 90.223 37.9755 86.0859 36.764 81.4459C36.7412 81.3088 36.6496 81.1717 36.6039 81.0345L41.2211 78.3601C41.2668 78.703 41.2439 79.0231 41.2897 79.343C41.4727 81.0345 43.85 91.9602 45.038 97.4002C33.9069 103.846 31.004 105.537 30.3639 105.903C30.341 105.926 30.3182 105.926 30.2953 105.949C30.2724 105.972 30.2266 105.972 30.2266 105.972C30.2043 105.994 30.2043 105.994 30.2043 105.994C30.2043 105.994 30.2043 105.972 30.1809 105.994C29.8383 106.177 29.5871 106.543 29.5871 106.977L29.6552 115.023C28.4214 115.252 27.2785 115.8 26.3868 116.714C24.8784 118.246 24.2841 120.417 24.7869 122.543C25.4956 125.514 28.124 127.229 30.8215 127.229C32.3756 127.229 33.9526 126.657 35.187 125.423C36.7412 123.846 37.3355 121.606 36.764 119.412C36.2155 117.309 34.5012 115.434 31.9409 115L31.8952 107.64L45.5643 99.7316C45.5871 99.8001 45.5871 99.8917 45.6095 99.9373C47.9409 110.543 48.9013 122.154 48.5124 134.497L48.2384 142.772C48.2155 144.303 48.7869 145.514 49.7925 146.109C50.0442 146.246 61.1982 152.737 61.1982 152.737C61.427 152.783 62.6385 153.743 64.7869 152.509L102.021 131.023C104.055 129.834 105.701 127.206 105.907 124.76L107.187 110.086C107.279 108.92 108.101 107.503 109.107 106.794L122.478 97.4002C126.159 94.8402 128.787 89.7431 128.627 85.5602L127.964 67.6859C127.941 67.2058 128.33 66.4973 128.764 66.2001L132.856 63.3202C134.776 61.9716 135.873 59.1831 135.187 57.3544ZM59.9409 141.126C59.9186 141.354 59.6669 148.692 59.6669 149.194L50.9353 144.12C50.73 144.006 50.5012 143.595 50.5241 142.84L50.7981 134.566C51.2099 122.04 50.2043 110.246 47.85 99.4574C47.7813 99.1373 47.7127 98.8402 47.6441 98.543L51.4153 96.3716C51.9644 96.0515 52.1468 95.343 51.8271 94.7944C51.5068 94.2459 50.8215 94.063 50.2724 94.383L47.1184 96.2116C45.0838 86.8859 43.6669 80.1888 43.5525 79.1144C43.4839 78.4516 43.4839 77.7658 43.4381 77.0801L49.1524 73.7887C49.701 73.4688 49.884 72.783 49.5643 72.2344C49.2668 71.6859 48.5581 71.503 48.0096 71.823L43.3695 74.4973C43.4153 66.1316 45.6786 56.9659 49.5643 48.1888L59.5068 42.4288C60.0553 42.1316 60.2384 41.423 59.9186 40.8745C59.6212 40.3259 58.9125 40.143 58.3639 40.4631L51.2557 44.5545C58.73 29.6517 69.3812 18.9088 78.9353 13.4688C86.0442 9.33166 93.9755 7.2287 101.038 11.3431L104.718 13.4688C97.7925 13.3088 90.7523 16.7831 85.1295 20.7145C65.3355 34.6117 50.4554 63.7316 52.6954 85.9716C52.9013 88.0059 56.6039 104.6 57.038 106.589C59.3472 117.126 60.3299 128.737 59.9409 141.126ZM131.553 61.4459L127.461 64.3259C126.387 65.0573 125.633 66.4973 125.679 67.7545L126.341 85.6516C126.478 89.0801 124.215 93.423 121.175 95.5487L107.781 104.92C106.227 106.017 105.061 108.074 104.924 109.903L103.621 124.554C103.484 126.269 102.272 128.234 100.878 129.035L63.6441 150.543C62.5012 151.183 61.9984 150.84 61.9755 149.606C61.9755 148.806 62.2266 141.217 62.2266 141.217C62.6385 128.669 61.6329 116.852 59.2785 106.063C56.6954 94.4973 55.0955 86.8859 54.9811 85.7431C52.8555 64.9888 66.8215 36.3487 86.4554 22.5888C94.3182 17.0803 104.101 13.1259 112.444 17.9716C112.444 17.9716 112.444 17.9716 112.467 17.9716C117.633 21.0116 121.792 27.1373 124.581 35.9601L133.061 58.1545C133.335 58.9316 132.673 60.6687 131.553 61.4459Z" fill="#BA5BD7"/>
<path d="M115.742 63.0887H115.72L110.983 61.3641C111.266 58.9408 111.266 56.3865 110.851 54.0506L116.069 45.9076C116.811 44.7288 116.921 43.397 116.309 42.5457L113.166 38.223C112.467 37.2624 111.048 37.197 109.891 38.3759L103.909 44.3794C102.271 43.7027 100.416 43.4625 98.4509 43.6372L97.4468 37.8082C97.338 37.1533 96.9447 36.6294 96.3989 36.3674C95.8313 36.0836 95.1331 36.149 94.4999 36.5203L88.3215 40.1005C87.3829 40.6245 86.6186 41.8034 86.4662 42.9386L85.4615 50.1866C82.667 52.6971 80.0693 55.8408 77.908 59.3337L72.7993 60.2288C71.6864 60.4471 70.7692 61.4951 70.3545 62.5648L67.3639 70.4895C66.7307 72.1268 67.3852 73.3275 68.3462 73.6768L71.8826 74.9649C71.6209 76.5585 71.5116 78.1086 71.5116 79.6149C71.5116 81.3614 71.7078 83.0206 72.0574 84.5488L67.9966 90.8579C67.2328 92.0368 67.1454 93.3904 67.7567 94.22L70.9003 98.5425C71.5772 99.4812 72.996 99.5903 74.1968 98.3896L79.2181 93.3467C81.1608 94.0453 83.3876 94.1763 85.7237 93.696L86.6186 98.9573C86.859 100.398 88.2559 100.988 89.5879 100.245L95.7444 96.665C96.7048 96.1193 97.4468 94.984 97.5997 93.827L98.6913 85.9677C101.115 83.5663 103.276 80.7502 105.175 77.6065L111.288 76.5366C111.55 76.4712 111.812 76.3839 112.052 76.2311C112.772 75.8163 113.384 75.074 113.711 74.2008L116.702 66.2761C117.335 64.6388 116.68 63.438 115.742 63.0887ZM102.457 61.9131C102.482 68.8415 97.5968 77.2903 91.5906 80.7794C86.0329 83.9696 81.8954 81.6268 81.871 75.2467C81.8461 68.3181 86.7308 59.8445 92.737 56.3802C98.2448 53.1902 102.457 55.483 102.457 61.9131Z" fill="#BA5BD7"/>
</svg>
