<svg width="160" height="160" viewBox="0 0 160 160" fill="none" xmlns="http://www.w3.org/2000/svg">
<path d="M15.754 108.294L22.3499 112.126C22.3516 112.126 22.3533 112.126 22.3544 112.127C22.3589 112.129 22.3617 112.133 22.3656 112.136C22.87 112.425 23.4275 112.574 24.0051 112.656C23.6558 113.327 23.4225 114.027 23.4214 114.766C23.4214 114.77 23.423 114.773 23.423 114.776C23.423 114.779 23.4214 114.781 23.4214 114.784C23.4214 114.785 23.4214 114.786 23.4214 114.787L23.437 123.044C23.4437 124.93 24.6267 126.655 26.7718 127.899L67.1535 151.371C71.2446 153.75 77.6573 153.738 81.7517 151.374L143.553 115.686C145.729 114.428 146.926 112.687 146.919 110.783L146.904 102.523C146.904 102.501 146.892 102.481 146.891 102.46C146.859 100.598 145.691 98.8974 143.569 97.6646L103.185 74.1914C100.627 72.7039 97.1552 72.1508 93.9097 72.5266C96.2563 69.5239 97.3857 65.9813 97.3857 63.3242C97.3857 63.3231 97.3857 63.322 97.3857 63.3209C97.3712 58.5255 97.4378 80.6256 97.245 16.6133C97.2383 14.159 96.35 12.2952 94.7517 11.3379C90.6834 8.96612 87.8671 7.32417 88.1111 7.46594C86.466 6.50723 84.3611 6.67129 82.1803 7.92799L20.3633 43.6255C16.2651 45.9916 13.0665 51.5418 13.0821 56.2617L13.2138 102.978C13.2205 105.459 14.1245 107.348 15.754 108.294ZM28.1022 49.4369L89.9192 13.7394C92.8516 12.0484 94.95 13.2074 94.9593 16.62L95.0073 33.5699C92.1571 34.3767 88.8508 35.996 84.975 40.0173L55.5391 70.6007L51.7428 69.5351C46.0789 68.0026 39.8371 71.9517 35.7852 76.1992L22.0497 90.4544L21.9638 60.0865C21.9528 56.4079 24.7176 51.3917 28.1022 49.4369ZM88.9526 73.986C86.1311 75.6124 81.7148 78.1581 81.9593 78.0171C63.3444 72.7919 63.2088 72.7538 58.0369 71.302L86.6223 41.6032C88.9224 39.214 91.8699 36.9718 95.014 35.9073L95.091 63.3365C95.1015 66.9357 92.4585 71.9615 88.9526 73.986ZM55.5308 72.9724C55.5458 72.9774 55.5553 72.9918 55.5709 72.9961C56.8212 73.3465 51.8053 71.9408 79.1915 79.6158L27.0676 109.715C24.0708 111.405 22.1134 110.076 22.0955 106.794V106.758L22.0587 93.7413L37.437 77.7807C40.8237 74.2272 46.3874 70.4513 51.1312 71.7371L55.5308 72.9724ZM142.41 113.706L80.6089 149.395C77.2607 151.328 71.6267 151.326 68.3008 149.396L27.9191 125.922C26.5062 125.102 25.7249 124.078 25.7227 123.038L25.716 118.941C26.0308 119.188 26.379 119.421 26.7562 119.64L67.1379 143.112C70.9826 145.348 77.4536 145.588 81.7339 143.114L143.537 107.427C143.548 107.421 143.555 107.413 143.565 107.407C143.949 107.184 144.305 106.946 144.627 106.695L144.633 110.788C144.636 111.84 143.848 112.876 142.41 113.706ZM102.037 76.1668L142.421 99.6401C145.452 101.404 145.217 103.816 142.395 105.447L80.591 141.134C77.2428 143.068 71.6111 143.068 68.2852 141.137L27.9035 117.663C25.0213 115.989 24.9338 113.587 27.9437 111.849L27.9621 111.838C28.8207 111.389 90.082 75.9781 89.8533 76.1105C93.2021 74.2429 98.7473 74.2543 102.037 76.1668ZM21.5062 45.6054L83.3232 9.9079C84.4205 9.27491 85.8612 8.80081 86.9593 9.44138C86.9616 9.44138 86.9616 9.44138 86.9616 9.4425L89.9571 11.1813C89.5687 11.3376 89.1736 11.5307 88.7763 11.7595L26.9593 47.4559C23.096 49.6874 19.6617 55.2232 19.6781 60.0932C19.6866 63.1216 19.6928 65.3109 19.8098 106.785V106.809C19.812 107.244 19.841 107.66 19.8946 108.057L16.9013 106.319C16.0017 105.796 15.504 104.608 15.4995 102.972L15.3678 56.255C15.3566 52.4101 18.1669 47.534 21.5062 45.6054Z" fill="#B9F0D7"/>
<path d="M61.6614 47.3772C61.6843 52.1545 58.4382 57.7774 54.2786 60.1773C49.6614 62.8516 45.7072 60.5887 45.7072 55.2859C45.6843 50.5087 48.9298 44.8859 53.09 42.4859C57.5928 39.8802 61.6385 42.2344 61.6614 47.3772Z" fill="#B9F0D7"/>
<path d="M73.238 116.237C72.0046 116.95 72.003 118.102 73.2236 118.811L86.5631 126.565C87.7836 127.275 89.7729 127.277 91.0063 126.565L111.421 114.777C112.649 114.067 112.651 112.915 111.43 112.205L98.0909 104.451C96.8704 103.742 94.8811 103.739 93.6524 104.449L73.238 116.237Z" fill="#B9F0D7"/>
<path d="M34.897 113.428C34.4989 113.658 34.4984 114.03 34.8924 114.259L39.198 116.761C39.592 116.99 40.2341 116.991 40.6322 116.761L44.8202 114.343C45.2168 114.114 45.2173 113.742 44.8234 113.513L40.5177 111.01C40.1237 110.781 39.4816 110.78 39.0851 111.009L34.897 113.428Z" fill="#B9F0D7"/>
<path d="M44.2037 108.051C43.8056 108.281 43.805 108.653 44.199 108.882L48.5047 111.384C48.8986 111.613 49.5407 111.614 49.9388 111.384L54.1269 108.966C54.5234 108.737 54.524 108.365 54.13 108.136L49.8243 105.633C49.4304 105.404 48.7883 105.403 48.3917 105.632L44.2037 108.051Z" fill="#B9F0D7"/>
<path d="M53.5103 102.672C53.1122 102.902 53.1117 103.274 53.5056 103.503L57.8113 106.005C58.2053 106.234 58.8474 106.235 59.2455 106.005L63.4335 103.587C63.8301 103.358 63.8306 102.986 63.4366 102.757L59.131 100.254C58.737 100.025 58.0949 100.024 57.6983 100.253L53.5103 102.672Z" fill="#B9F0D7"/>
<path d="M62.8169 97.2948C62.4188 97.5247 62.4183 97.8967 62.8123 98.1257L67.1179 100.628C67.5119 100.857 68.154 100.858 68.5521 100.628L72.7402 98.2099C73.1367 97.9809 73.1373 97.6089 72.7433 97.38L68.4376 94.8773C68.0436 94.6483 67.4016 94.6474 67.005 94.8764L62.8169 97.2948Z" fill="#B9F0D7"/>
<path d="M72.1236 91.9179C71.7255 92.1478 71.7249 92.5198 72.1189 92.7488L76.4246 95.2514C76.8186 95.4804 77.4606 95.4813 77.8587 95.2514L82.0468 92.833C82.4434 92.604 82.4439 92.232 82.0499 92.003L77.7443 89.5003C77.3503 89.2713 76.7082 89.2704 76.3116 89.4994L72.1236 91.9179Z" fill="#B9F0D7"/>
<path d="M81.4302 86.539C81.0321 86.7689 81.0316 87.1409 81.4256 87.3698L85.7312 89.8725C86.1252 90.1015 86.7673 90.1024 87.1654 89.8725L91.3534 87.4541C91.75 87.2251 91.7505 86.8531 91.3566 86.6241L87.0509 84.1214C86.6569 83.8924 86.0148 83.8915 85.6183 84.1205L81.4302 86.539Z" fill="#B9F0D7"/>
<path d="M90.7349 81.162C90.3368 81.3919 90.3363 81.7639 90.7303 81.9929L95.0359 84.4956C95.4299 84.7246 96.072 84.7255 96.4701 84.4956L100.658 82.0771C101.055 81.8481 101.055 81.4761 100.661 81.2471L96.3556 78.7445C95.9616 78.5155 95.3195 78.5146 94.923 78.7436L90.7349 81.162Z" fill="#B9F0D7"/>
<path d="M42.5923 118.641C42.1942 118.87 42.1937 119.242 42.5877 119.471L46.8933 121.974C47.2873 122.203 47.9294 122.204 48.3275 121.974L52.5155 119.556C52.9121 119.327 52.9126 118.955 52.5187 118.726L48.213 116.223C47.819 115.994 47.1769 115.993 46.7804 116.222L42.5923 118.641Z" fill="#B9F0D7"/>
<path d="M51.899 113.264C51.5009 113.493 51.5003 113.865 51.8943 114.094L56.2 116.597C56.5939 116.826 57.236 116.827 57.6341 116.597L61.8222 114.179C62.2188 113.95 62.2193 113.578 61.8253 113.349L57.5197 110.846C57.1257 110.617 56.4836 110.616 56.087 110.845L51.899 113.264Z" fill="#B9F0D7"/>
<path d="M61.2056 107.885C60.8075 108.115 60.807 108.487 61.201 108.716L65.5066 111.218C65.9006 111.447 66.5427 111.448 66.9408 111.218L71.1288 108.8C71.5254 108.571 71.5259 108.199 71.1319 107.97L66.8263 105.467C66.4323 105.238 65.7902 105.237 65.3937 105.466L61.2056 107.885Z" fill="#B9F0D7"/>
<path d="M70.5122 102.508C70.1141 102.738 70.1136 103.11 70.5076 103.339L74.8133 105.841C75.2072 106.07 75.8493 106.071 76.2474 105.841L80.4355 103.423C80.832 103.194 80.8326 102.822 80.4386 102.593L76.1329 100.09C75.739 99.8612 75.0969 99.8603 74.7003 100.089L70.5122 102.508Z" fill="#B9F0D7"/>
<path d="M79.8189 97.1308C79.4208 97.3607 79.4203 97.7327 79.8142 97.9616L84.1199 100.464C84.5139 100.693 85.156 100.694 85.5541 100.464L89.7421 98.0459C90.1387 97.8169 90.1392 97.4449 89.7452 97.2159L85.4396 94.7132C85.0456 94.4842 84.4035 94.4833 84.0069 94.7123L79.8189 97.1308Z" fill="#B9F0D7"/>
<path d="M89.1255 91.7519C88.7274 91.9817 88.7269 92.3537 89.1209 92.5827L93.4265 95.0854C93.8205 95.3144 94.4626 95.3153 94.8607 95.0854L99.0488 92.667C99.4453 92.438 99.4458 92.066 99.0519 91.837L94.7462 89.3343C94.3522 89.1053 93.7102 89.1044 93.3136 89.3334L89.1255 91.7519Z" fill="#B9F0D7"/>
<path d="M98.4302 86.3749C98.0321 86.6048 98.0316 86.9768 98.4256 87.2058L102.731 89.7085C103.125 89.9375 103.767 89.9384 104.165 89.7085L108.353 87.29C108.75 87.061 108.751 86.689 108.357 86.46L104.051 83.9574C103.657 83.7284 103.015 83.7274 102.618 83.9565L98.4302 86.3749Z" fill="#B9F0D7"/>
</svg>
